# xmcd
#
# Track frame offsets:
#	150
#	17397
#	32402
#	55860
#	77982
#	90522
#	107207
#	131352
#	173555
#	188065
#	203260
#	215517
#
# Disc length: 3186 seconds
#
# Revision: 1
# Processed by: cddbd v1.5.1PL2 Copyright (c) Steve Scherf et al.
# Submitted via: dBpowerAMP V4.0
#
DISCID=8a0c700c
DTITLE=Chris Cotton - I Watched the Devil Die
DYEAR=2005
DGENRE=Blues
TTITLE0=Morgan City, Mississippi
TTITLE1=Come On
TTITLE2=I Watched the Devil Die
TTITLE3=Dying Crapshooter's Blues
TTITLE4=That's It
TTITLE5=I'm So Glad
TTITLE6=Was it Low?
TTITLE7=Black Night
TTITLE8=Louis Collins
TTITLE9=Blues for Big Bill
TTITLE10=Bill Bailey
TTITLE11=Goin' Back Home
EXTD=(c) (p) 2005 Yellow Dog Records\nhttp://yellowdogrecords.com/chriscotton
EXTT0=
EXTT1=
EXTT2=
EXTT3=
EXTT4=
EXTT5=
EXTT6=
EXTT7=
EXTT8=
EXTT9=
EXTT10=
EXTT11=
PLAYORDER=
